# File created by Blade
# Date/Time:  Wed Jan 21 15:23:43 2015
# Frame Rate: 120.000 fps
#------------------------------------------------------
:FULLY-SPECIFIED
:DEGREES
941
root 10.522590 28.307589 -18.345037 -161.281392 2.092887 -193.251334
Spine 3.413889 3.788103 -18.348950
Head -20.685742 -4.496674 4.053585
LeftShoulder -3.790952 -26.801504 0.855522
LeftArm -16.852188 46.373578 -82.126502
LeftForeArm 25.578263 -0.000000 50.942190
LeftHand 0.545693 0.000000 -0.470274
LeftHandThumb1 -26.253704 0.000000 33.147579
RightShoulder -2.684915 -9.602773 5.843725
RightArm 18.820505 -33.041787 63.392395
RightForeArm -29.680200 -0.000000 23.301696
RightHand 4.109256 0.000000 6.698242
RightHandThumb1 -24.326973 -0.000000 -32.862282
LeftUpLeg -54.559687 13.744978 -21.146087
LeftLeg 71.269053 -0.000000 -0.000000
LeftFoot -53.570229 15.412899 -14.032124
LeftToeBase 25.918371 -0.000000 -0.000000
RightUpLeg -19.363846 -41.693977 -39.535660
RightLeg -4.332913 -0.000000 0.000000
RightFoot 5.681308 -25.015396 16.340140
RightToeBase 30.608357 -0.000000 -0.000000
942
root 10.521396 28.306908 -18.355829 -161.295753 2.066353 -193.250483
Spine 3.414032 3.753876 -18.327403
Head -20.624196 -4.523809 4.071700
LeftShoulder -3.756760 -26.779431 0.853943
LeftArm -16.845160 46.399843 -82.138649
LeftForeArm 25.499211 -0.000000 50.881232
LeftHand 0.575595 -0.000000 -0.439962
LeftHandThumb1 -26.253704 0.000000 33.147579
RightShoulder -2.707200 -9.619659 5.860361
RightArm 18.827828 -33.005169 63.399003
RightForeArm -29.721466 -0.000000 23.266824
RightHand 4.147909 0.000000 6.546502
RightHandThumb1 -24.326973 -0.000000 -32.862282
LeftUpLeg -54.523525 13.718743 -21.127732
LeftLeg 71.278520 -0.000000 -0.000000
LeftFoot -53.575304 15.426924 -14.047940
LeftToeBase 25.859626 -0.000000 -0.000000
RightUpLeg -19.311826 -41.718743 -39.554408
RightLeg -4.343011 -0.000000 0.000000
RightFoot 5.726964 -25.070999 16.340842
RightToeBase 30.751512 -0.000000 -0.000000
943
root 10.520706 28.306153 -18.367208 -161.321156 2.039861 -193.247717
Spine 3.425691 3.716607 -18.307600
Head -20.547609 -4.529011 4.104701
LeftShoulder -3.719855 -26.784449 0.844815
LeftArm -16.889061 46.405880 -82.161352
LeftForeArm 25.469266 0.000000 50.858782
LeftHand 0.568788 -0.000000 -0.471071
LeftHandThumb1 -26.253704 0.000000 33.147579
RightShoulder -2.722295 -9.604521 5.864666
RightArm 18.812413 -32.999849 63.421462
RightForeArm -29.758697 -0.000000 23.246685
RightHand 4.234052 -0.000000 6.835162
RightHandThumb1 -24.326973 -0.000000 -32.862282
LeftUpLeg -54.479519 13.702841 -21.105632
LeftLeg 71.294683 -0.000000 -0.000000
LeftFoot -53.576529 15.428278 -14.056265
LeftToeBase 25.845533 -0.000000 -0.000000
RightUpLeg -19.250319 -41.746229 -39.569925
RightLeg -4.359114 -0.000000 0.000000
RightFoot 5.776605 -25.123638 16.318282
RightToeBase 30.867530 -0.000000 -0.000000
944
root 10.520193 28.306017 -18.378349 -161.331203 2.032223 -193.245592
Spine 3.417669 3.692857 -18.301290
Head -20.499641 -4.550263 4.133225
LeftShoulder -3.703802 -26.796800 0.855193
LeftArm -16.941700 46.436838 -82.209975
LeftForeArm 25.441346 -0.000000 50.823629
LeftHand 0.562624 -0.000000 -0.440133
LeftHandThumb1 -26.253704 0.000000 33.147579
RightShoulder -2.734128 -9.600672 5.890807
RightArm 18.807413 -32.995252 63.423357
RightForeArm -29.712897 -0.000000 23.223244
RightHand 4.169104 -0.000000 6.499067
RightHandThumb1 -24.326973 -0.000000 -32.862282
LeftUpLeg -54.451079 13.700721 -21.097031
LeftLeg 71.302170 -0.000000 -0.000000
LeftFoot -53.584947 15.447486 -14.070702
LeftToeBase 25.809523 -0.000000 -0.000000
RightUpLeg -19.218774 -41.756912 -39.574626
RightLeg -4.377310 -0.000000 0.000000
RightFoot 5.834379 -25.189190 16.268182
RightToeBase 31.038021 -0.000000 -0.000000
945
root 10.517871 28.306130 -18.389755 -161.353346 2.029550 -193.249666
Spine 3.424800 3.681123 -18.298129
Head -20.452225 -4.563708 4.168116
LeftShoulder -3.696446 -26.796891 0.850134
LeftArm -16.929997 46.441380 -82.194162
LeftForeArm 25.610126 -0.000000 50.802355
LeftHand 0.585918 -0.000000 -0.590902
LeftHandThumb1 -26.253704 0.000000 33.147579
RightShoulder -2.747233 -9.595029 5.907160
RightArm 18.793042 -32.987760 63.433573
RightForeArm -29.756394 -0.000000 23.221092
RightHand 4.178986 -0.000000 6.479293
RightHandThumb1 -24.326973 -0.000000 -32.862282
LeftUpLeg -54.405245 13.696811 -21.091387
LeftLeg 71.300961 -0.000000 -0.000000
LeftFoot -53.616342 15.470888 -14.074162
LeftToeBase 25.908286 -0.000000 -0.000000
RightUpLeg -19.179749 -41.776105 -39.590531
RightLeg -4.401453 -0.000000 0.000000
RightFoot 5.924816 -25.232884 16.418537
RightToeBase 30.810824 -0.000000 -0.000000
946
root 10.514163 28.306448 -18.400043 -161.361407 2.038969 -193.252623
Spine 3.410629 3.664358 -18.294746
Head -20.407857 -4.557851 4.189010
LeftShoulder -3.686553 -26.821402 0.850153
LeftArm -16.986880 46.461472 -82.243251
LeftForeArm 25.610594 -0.000000 50.773079
LeftHand 0.567593 -0.000000 -0.570746
LeftHandThumb1 -26.253704 0.000000 33.147579
RightShoulder -2.742415 -9.595629 5.917138
RightArm 18.764550 -32.963490 63.443919
RightForeArm -29.789043 0.000000 23.231865
RightHand 4.225500 -0.000000 6.484157
RightHandThumb1 -24.326973 -0.000000 -32.862282
LeftUpLeg -54.374296 13.697268 -21.099152
LeftLeg 71.294517 -0.000000 -0.000000
LeftFoot -53.629148 15.499388 -14.087032
LeftToeBase 25.817417 -0.000000 -0.000000
RightUpLeg -19.165200 -41.781607 -39.609203
RightLeg -4.400171 -0.000000 0.000000
RightFoot 5.976832 -25.273312 16.318337
RightToeBase 31.185673 -0.000000 -0.000000
947
root 10.513265 28.306080 -18.411816 -161.385690 2.042317 -193.260008
Spine 3.414532 3.652444 -18.308562
Head -20.365275 -4.555538 4.234745
LeftShoulder -3.677225 -26.843841 0.869343
LeftArm -17.032320 46.483750 -82.288009
LeftForeArm 25.609095 -0.000000 50.737889
LeftHand 0.556480 0.000000 -0.563756
LeftHandThumb1 -26.253704 0.000000 33.147579
RightShoulder -2.742592 -9.602702 5.937096
RightArm 18.768341 -32.975100 63.446897
RightForeArm -29.750943 0.000000 23.231506
RightHand 4.193002 0.000000 6.432426
RightHandThumb1 -24.326973 -0.000000 -32.862282
LeftUpLeg -54.331579 13.715000 -21.103625
LeftLeg 71.299512 -0.000000 -0.000000
LeftFoot -53.648068 15.494020 -14.109681
LeftToeBase 25.817819 -0.000000 -0.000000
RightUpLeg -19.132459 -41.790358 -39.628858
RightLeg -4.411934 -0.000000 0.000000
RightFoot 6.021490 -25.334149 16.345801
RightToeBase 31.273759 -0.000000 -0.000000
948
root 10.511755 28.306143 -18.422621 -161.407886 2.038332 -193.261372
Spine 3.427170 3.640069 -18.305211
Head -20.345097 -4.553717 4.266341
LeftShoulder -3.683293 -26.871432 0.882431
LeftArm -17.053045 46.540309 -82.333426
LeftForeArm 25.583860 -0.000000 50.670342
LeftHand 0.563399 -0.000000 -0.500829
LeftHandThumb1 -26.253704 0.000000 33.147579
RightShoulder -2.742906 -9.591435 5.942193
RightArm 18.745767 -32.971197 63.474068
RightForeArm -29.820161 -0.000000 23.233021
RightHand 4.172897 -0.000000 6.403223
RightHandThumb1 -24.326973 -0.000000 -32.862282
LeftUpLeg -54.287662 13.721804 -21.099913
LeftLeg 71.295852 -0.000000 -0.000000
LeftFoot -53.669105 15.534572 -14.101888
LeftToeBase 25.844782 -0.000000 -0.000000
RightUpLeg -19.090537 -41.799304 -39.644044
RightLeg -4.432763 -0.000000 0.000000
RightFoot 6.108852 -25.399634 16.257425
RightToeBase 31.360285 -0.000000 -0.000000
949
root 10.512932 28.305475 -18.433128 -161.420802 2.042160 -193.257105
Spine 3.416917 3.641276 -18.312926
Head -20.285153 -4.575724 4.303663
LeftShoulder -3.666149 -26.847172 0.902816
LeftArm -17.021087 46.547457 -82.332343
LeftForeArm 25.606661 -0.000000 50.611967
LeftHand 0.605006 -0.000000 -0.503557
LeftHandThumb1 -26.253704 0.000000 33.147579
RightShoulder -2.743024 -9.616272 5.957135
RightArm 18.752073 -32.971053 63.486355
RightForeArm -29.858192 -0.000000 23.238795
RightHand 4.145117 -0.000000 6.375185
RightHandThumb1 -24.326973 -0.000000 -32.862282
LeftUpLeg -54.265408 13.734663 -21.091797
LeftLeg 71.311173 -0.000000 -0.000000
LeftFoot -53.669829 15.528343 -14.133976
LeftToeBase 25.792862 -0.000000 -0.000000
RightUpLeg -19.081345 -41.824074 -39.635827
RightLeg -4.432692 -0.000000 0.000000
RightFoot 6.100582 -25.416041 16.342437
RightToeBase 31.464549 -0.000000 -0.000000
950
root 10.510765 28.305548 -18.442244 -161.435740 2.067649 -193.249264
Spine 3.422223 3.648789 -18.310600
Head -20.306798 -4.565274 4.344743
LeftShoulder -3.683853 -26.847412 0.924634
LeftArm -16.993510 46.589988 -82.358202
LeftForeArm 25.584724 -0.000000 50.540793
LeftHand 0.608770 -0.000000 -0.436647
LeftHandThumb1 -26.253704 0.000000 33.147579
RightShoulder -2.749518 -9.606791 5.953528
RightArm 18.769767 -33.004485 63.494095
RightForeArm -29.826872 -0.000000 23.215592
RightHand 4.127692 -0.000000 6.354641
RightHandThumb1 -24.326973 -0.000000 -32.862282
LeftUpLeg -54.239028 13.751513 -21.088194
LeftLeg 71.313659 -0.000000 -0.000000
LeftFoot -53.690934 15.568933 -14.137963
LeftToeBase 25.784585 -0.000000 -0.000000
RightUpLeg -19.079497 -41.795022 -39.642822
RightLeg -4.424239 -0.000000 0.000000
RightFoot 6.156175 -25.441852 16.311895
RightToeBase 31.509562 -0.000000 -0.000000
951
root 10.509770 28.304911 -18.451196 -161.445652 2.067571 -193.245944
Spine 3.419792 3.633282 -18.311626
Head -20.308523 -4.594424 4.383862
LeftShoulder -3.669115 -26.825871 0.936975
LeftArm -16.965586 46.578889 -82.360800
LeftForeArm 25.585101 -0.000000 50.487244
LeftHand 0.651634 -0.000000 -0.429484
LeftHandThumb1 -26.253704 0.000000 33.147579
RightShoulder -2.748665 -9.608081 5.949615
RightArm 18.783785 -33.049467 63.498051
RightForeArm -29.847260 0.000000 23.218401
RightHand 4.060696 0.000000 6.274702
RightHandThumb1 -24.326973 -0.000000 -32.862282
LeftUpLeg -54.216465 13.740160 -21.078579
LeftLeg 71.323524 -0.000000 -0.000000
LeftFoot -53.703158 15.582223 -14.162686
LeftToeBase 25.785113 -0.000000 -0.000000
RightUpLeg -19.063695 -41.810798 -39.650723
RightLeg -4.417849 -0.000000 0.000000
RightFoot 6.172750 -25.459557 16.363257
RightToeBase 31.612144 -0.000000 -0.000000
952
root 10.508678 28.304879 -18.461132 -161.461644 2.073074 -193.237166
Spine 3.427346 3.632972 -18.301567
Head -20.289874 -4.588302 4.408464
LeftShoulder -3.668405 -26.820313 0.931667
LeftArm -16.943432 46.594357 -82.358479
LeftForeArm 25.524389 -0.000000 50.438870
LeftHand 0.740751 0.000000 -0.513809
LeftHandThumb1 -26.253704 0.000000 33.147579
RightShoulder -2.755019 -9.625868 5.949765
RightArm 18.814444 -33.065962 63.491098
RightForeArm -29.865629 0.000000 23.213028
RightHand 4.041073 -0.000000 6.220779
RightHandThumb1 -24.326973 -0.000000 -32.862282
LeftUpLeg -54.188592 13.742263 -21.064771
LeftLeg 71.337329 -0.000000 -0.000000
LeftFoot -53.713389 15.595403 -14.175086
LeftToeBase 25.772696 -0.000000 -0.000000
RightUpLeg -19.045125 -41.814757 -39.650636
RightLeg -4.420429 -0.000000 0.000000
RightFoot 6.217488 -25.533174 16.439913
RightToeBase 31.486523 -0.000000 -0.000000
